<svg width="25" height="16" viewBox="0 0 25 16" fill="none" xmlns="http://www.w3.org/2000/svg">
<mask id="path-1-inside-1_257:8" fill="white">
<path d="M24.0416 7.02092C20.7277 10.3348 16.3434 13.9945 12 14.0001C7.64202 14.0057 3.32503 10.3459 0 7.02092C3.29719 3.72373 7.67855 0.0222196 12 0.00010132C16.3798 -0.0223157 20.6999 3.67919 24.0416 7.02092Z"/>
<path d="M12 14.0001L13 13.9361V15.5C13 15.7761 12.7761 16 12.5 16C12.2239 16 12 15.7761 12 15.5V14.0001Z"/>
<path d="M18.1327 11.9258L19 11.3533L20.373 12.9151C20.5505 13.1267 20.5229 13.4421 20.3114 13.6196C20.0998 13.7971 19.7845 13.7695 19.607 13.5579L18.1327 11.9258Z"/>
<path d="M6.19385 12.1247L5.31164 11.5596L4.32144 12.9151C4.14394 13.1267 4.17154 13.4421 4.38307 13.6196C4.59461 13.7971 4.90999 13.7695 5.08749 13.5579L6.19385 12.1247Z"/>
</mask>
<path d="M24.0416 7.02092L24.7487 7.72802L25.4558 7.02092L24.7487 6.31381L24.0416 7.02092ZM0 7.02092L-0.707107 6.31381L-1.41421 7.02092L-0.707107 7.72802L0 7.02092ZM12 0.00010132L11.9949 -0.999886L12 0.00010132ZM13 13.9361H14V12.87L12.9361 12.9381L13 13.9361ZM18.1327 11.9258L17.5818 11.0911L16.6103 11.7323L17.3906 12.5961L18.1327 11.9258ZM19 11.3533L19.751 10.6931L19.176 10.039L18.4492 10.5187L19 11.3533ZM19.607 13.5579L20.373 12.9151L20.3613 12.9012L20.3491 12.8876L19.607 13.5579ZM20.373 12.9151L21.1391 12.2724L21.1317 12.2635L21.1241 12.2549L20.373 12.9151ZM6.19385 12.1247L6.98544 12.7357L7.65258 11.8715L6.73321 11.2826L6.19385 12.1247ZM5.31164 11.5596L5.85101 10.7175L5.05897 10.2102L4.50414 10.9697L5.31164 11.5596ZM5.08749 13.5579L5.85353 14.2007L5.86663 14.1851L5.87908 14.169L5.08749 13.5579ZM4.32144 12.9151L5.08749 13.5579L5.10911 13.5322L5.12894 13.505L4.32144 12.9151ZM23.3345 6.31381C21.6971 7.95124 19.8301 9.6379 17.8633 10.9118C15.8873 12.1916 13.8975 12.9977 11.9987 13.0001L12.0013 15.0001C14.4459 14.997 16.8199 13.9704 18.9505 12.5905C21.0902 11.2046 23.0723 9.40447 24.7487 7.72802L23.3345 6.31381ZM11.9987 13.0001C10.0945 13.0025 8.11947 12.2002 6.15882 10.9218C4.2059 9.64848 2.35294 7.95964 0.707107 6.31381L-0.707107 7.72802C0.972089 9.40722 2.94014 11.2108 5.06647 12.5972C7.18506 13.9785 9.54748 15.0032 12.0013 15.0001L11.9987 13.0001ZM0.707107 7.72802C2.33773 6.0974 4.2008 4.40377 6.16356 3.11906C8.13628 1.82783 10.1195 1.00974 12.0051 1.00009L11.9949 -0.999886C9.55909 -0.987419 7.19086 0.0563085 5.06824 1.44566C2.93567 2.84152 0.959461 4.64724 -0.707107 6.31381L0.707107 7.72802ZM12.0051 1.00009C13.9167 0.990304 15.8958 1.79683 17.862 3.08536C19.8206 4.3689 21.6786 6.07212 23.3345 7.72802L24.7487 6.31381C23.0629 4.62799 21.09 2.80959 18.9582 1.41256C16.834 0.0204976 14.4631 -1.01252 11.9949 -0.999886L12.0051 1.00009ZM12.0639 14.998L13.0639 14.934L12.9361 12.9381L11.9361 13.0021L12.0639 14.998ZM12 13.9361V15.5H14V13.9361H12ZM13 15.5V14.0001H11V15.5H13ZM12.5 15C12.7761 15 13 15.2239 13 15.5H11C11 16.3284 11.6716 17 12.5 17V15ZM12 15.5C12 15.2239 12.2239 15 12.5 15V17C13.3284 17 14 16.3284 14 15.5H12ZM18.6835 12.7604L19.5508 12.188L18.4492 10.5187L17.5818 11.0911L18.6835 12.7604ZM18.249 12.0136L19.622 13.5754L21.1241 12.2549L19.751 10.6931L18.249 12.0136ZM20.3491 12.8876L18.8747 11.2554L17.3906 12.5961L18.8649 14.2282L20.3491 12.8876ZM19.6686 12.8535C19.8801 12.676 20.1955 12.7036 20.373 12.9151L18.8409 14.2007C19.3734 14.8353 20.3196 14.9181 20.9542 14.3856L19.6686 12.8535ZM19.607 13.5579C19.4295 13.3464 19.4571 13.031 19.6686 12.8535L20.9542 14.3856C21.5888 13.8531 21.6716 12.907 21.1391 12.2724L19.607 13.5579ZM6.73321 11.2826L5.85101 10.7175L4.77228 12.4017L5.65449 12.9668L6.73321 11.2826ZM4.50414 10.9697L3.51395 12.3253L5.12894 13.505L6.11914 12.1495L4.50414 10.9697ZM5.87908 14.169L6.98544 12.7357L5.40226 11.5136L4.2959 12.9469L5.87908 14.169ZM3.74029 14.3856C4.3749 14.9181 5.32103 14.8353 5.85353 14.2007L4.32144 12.9151C4.49895 12.7036 4.81432 12.676 5.02586 12.8535L3.74029 14.3856ZM3.5554 12.2724C3.0229 12.907 3.10567 13.8531 3.74029 14.3856L5.02586 12.8535C5.2374 13.031 5.26499 13.3464 5.08749 13.5579L3.5554 12.2724Z" fill="#0A7B79" mask="url(#path-1-inside-1_257:8)"/>
</svg>
