<svg width="393" height="299" viewBox="0 0 393 299" fill="none" xmlns="http://www.w3.org/2000/svg">
<path d="M106.277 57.3176L109.28 59.4796C111.285 60.9228 113.819 61.4223 116.222 60.8481L121.512 59.5839C124.537 58.8609 126.932 62.1489 125.316 64.8067L122.49 69.4536C121.206 71.5643 120.904 74.1291 121.663 76.4802L122.799 80.002C123.836 83.2178 120.166 85.8913 117.423 83.9173L114.42 81.7554C112.415 80.3122 109.881 79.8126 107.478 80.3869L102.189 81.651C99.163 82.3741 96.7682 79.0861 98.3846 76.4283L101.211 71.7814C102.494 69.6706 102.796 67.1058 102.038 64.7548L100.901 61.2329C99.8639 58.0172 103.535 55.3436 106.277 57.3176Z" fill="#F4A363" stroke="#121A2D" stroke-width="5"/>
<path d="M260.583 152.328L263.912 155.783C265.928 157.875 264.664 161.371 261.776 161.69L257.007 162.217C254.593 162.483 252.407 163.781 251.006 165.749C248.951 168.637 244.336 166.968 244.603 163.433C244.784 161.025 243.934 158.629 242.249 156.88L238.919 153.425C236.903 151.332 238.167 147.836 241.056 147.517L245.825 146.991C248.239 146.724 250.425 145.427 251.826 143.459C253.881 140.571 258.496 142.24 258.229 145.774C258.047 148.183 258.897 150.579 260.583 152.328Z" fill="#F4A363" stroke="#121A2D" stroke-width="5"/>
<path d="M353.009 64.0112L356.338 67.4663C358.354 69.5587 357.09 73.0548 354.202 73.3737L349.433 73.9003C347.018 74.1669 344.832 75.4646 343.432 77.4324C341.376 80.3202 336.761 78.6514 337.028 75.1168C337.21 72.7083 336.36 70.3127 334.674 68.5636L331.345 65.1085C329.329 63.0161 330.593 59.52 333.481 59.2011L338.25 58.6745C340.665 58.4079 342.851 57.1102 344.251 55.1424C346.307 52.2546 350.922 53.9234 350.655 57.458C350.473 59.8665 351.323 62.2621 353.009 64.0112Z" fill="#F4A363" stroke="#121A2D" stroke-width="5"/>
<path d="M253.787 150.389L253.951 153.207L256.453 155.132L253.298 155.012L251.37 157.072L251.205 154.255L248.704 152.33L251.858 152.45L253.787 150.389Z" fill="#F7F0EB"/>
<path d="M253.787 150.389L253.951 153.207L256.453 155.132L253.298 155.012L251.37 157.072L251.205 154.255L248.704 152.33L251.858 152.45L253.787 150.389Z" fill="#F7F0EB"/>
<path d="M114.802 66.4631L113.309 68.8584L114.24 71.8747L111.734 69.9553L108.97 70.5243L110.462 68.1289L109.531 65.1126L112.037 67.032L114.802 66.4631Z" fill="#F7F0EB"/>
<path d="M114.802 66.4631L113.309 68.8584L114.24 71.8747L111.734 69.9553L108.97 70.5243L110.462 68.1289L109.531 65.1126L112.037 67.032L114.802 66.4631Z" fill="#F7F0EB"/>
<path d="M346.212 62.071L346.377 64.8885L348.878 66.8136L345.724 66.6935L343.796 68.7541L343.631 65.9367L341.129 64.0115L344.284 64.1316L346.212 62.071Z" fill="#F7F0EB"/>
<path d="M346.212 62.071L346.377 64.8885L348.878 66.8136L345.724 66.6935L343.796 68.7541L343.631 65.9367L341.129 64.0115L344.284 64.1316L346.212 62.071Z" fill="#F7F0EB"/>
<g filter="url(#filter0_i_446_181)">
<path d="M345.168 201.013C300.699 280.803 279.066 269.513 252.782 254.864C228.303 241.221 198.426 213.132 265.583 174.079C276.073 167.979 285.049 159.487 291.623 149.287C315.024 112.982 343.746 87.7389 366.774 100.573C393.057 115.222 369.908 156.624 345.168 201.013Z" fill="#785BB4"/>
</g>
<path d="M342.984 199.796C331.911 219.663 322.319 233.752 313.787 243.502C305.25 253.257 297.881 258.547 291.281 261.011C278.266 265.869 267.313 260.101 254 252.68C247.989 249.33 241.746 245.145 236.774 240.204C231.794 235.255 228.244 229.703 227.289 223.613C225.42 211.698 233.358 195.711 266.839 176.241C277.664 169.946 286.932 161.18 293.725 150.641C305.345 132.612 318.172 117.522 330.788 108.539C343.416 99.5486 355.265 97.0211 365.557 102.757C371.449 106.041 374.487 110.718 375.501 116.628C376.542 122.69 375.469 130.178 372.72 138.888C367.227 156.298 355.432 177.462 343.031 199.712L342.984 199.796Z" stroke="#140844" stroke-width="5"/>
<g filter="url(#filter1_i_446_181)">
<path d="M378.173 129.349C375.806 150.608 371.243 123.854 360.966 131.657C356.748 121.807 356.866 116.124 337.867 118.692C335.594 118.17 336.417 112.685 334.273 112.371C329.201 111.63 324.765 113.97 322.261 112.371C332.039 98.5129 347.667 92.8424 361.511 95.904C375.355 98.9656 380.89 113.849 378.173 129.349Z" fill="#96F586"/>
</g>
<path d="M338.37 114.519C338.221 113.889 338.012 113.075 337.692 112.375C337.3 111.522 336.425 110.159 334.634 109.898C331.902 109.498 329.342 109.871 327.424 110.149C327.339 110.162 327.255 110.174 327.173 110.186C336.391 99.7835 349.423 95.7912 360.971 98.345C367.031 99.6853 371.288 103.58 373.78 109.005C376.3 114.491 377.001 121.554 375.71 128.918L375.697 128.995L375.688 129.073C375.414 131.534 375.121 133.227 374.824 134.352C374.696 134.213 374.556 134.058 374.403 133.886C374.272 133.739 374.132 133.58 373.985 133.413C372.761 132.019 370.996 130.009 368.887 128.817C367.63 128.108 366.131 127.606 364.431 127.693C363.686 127.731 362.95 127.879 362.222 128.136C362.185 128.043 362.148 127.95 362.111 127.858C361.565 126.496 361.031 125.162 360.513 124.055C359.567 122.034 358.397 120.088 356.534 118.577C352.996 115.706 347.742 115.007 339.214 116.002L338.37 114.519ZM374.334 135.689C374.333 135.689 374.335 135.687 374.339 135.682C374.335 135.687 374.334 135.689 374.334 135.689Z" stroke="#236119" stroke-width="5"/>
<ellipse cx="369.163" cy="92.3998" rx="5.19322" ry="10.1374" transform="rotate(33.9297 369.163 92.3998)" fill="#236119"/>
<g filter="url(#filter2_i_446_181)">
<path d="M102.307 134.238C90.3375 122.161 104.002 102.455 119.48 109.495L131.556 114.987C132.131 115.249 132.787 114.846 132.814 114.215V114.215C133.174 105.681 139.843 98.7549 148.357 98.0716L153.792 97.6355C164.591 96.7688 172.265 107.936 167.585 117.707L167.448 117.992C167.237 118.433 167.628 118.924 168.105 118.817V118.817C181.235 115.871 187.359 134.409 175.057 139.864L169.848 142.173C164.955 144.343 162.158 149.558 163.058 154.835L166.861 177.126C167.368 180.098 165.59 182.985 162.707 183.87L152.133 187.116C149.391 187.957 146.447 186.653 145.229 184.056L137.833 168.294C134.652 161.515 127.088 157.969 119.843 159.859L114.072 161.365C98.3703 165.462 88.8299 144.602 102.198 135.404V135.404C102.589 135.134 102.641 134.576 102.307 134.238V134.238Z" fill="#46AB35"/>
</g>
<path d="M161.973 181.48L151.4 184.726C149.848 185.202 148.182 184.464 147.492 182.994L140.096 167.232C136.403 159.362 127.623 155.246 119.212 157.44L113.44 158.946C100.448 162.336 92.5531 145.075 103.615 137.463C105.292 136.309 105.512 133.921 104.082 132.478C94.0442 122.349 105.526 105.894 118.445 111.77L130.521 117.263C132.71 118.259 135.21 116.723 135.312 114.32C135.619 107.048 141.301 101.146 148.557 100.564L153.992 100.127C162.869 99.4151 169.178 108.595 165.33 116.627L165.194 116.912C164.08 119.236 166.138 121.82 168.653 121.256C178.835 118.972 183.584 133.348 174.044 137.578L168.835 139.888C162.896 142.522 159.501 148.851 160.594 155.255L164.397 177.546C164.692 179.28 163.655 180.964 161.973 181.48Z" stroke="#236119" stroke-width="5"/>
<line x1="155.779" y1="180.507" x2="147.563" y2="155.861" stroke="#96F586" stroke-width="5"/>
<path d="M157.611 117.444V117.444C159.693 113.039 154.94 108.533 150.653 110.848L141.719 115.669" stroke="#96F586" stroke-width="3"/>
<path d="M106.247 143.358V143.358C103.801 147.345 106.906 152.424 111.57 152.064L115.702 151.745" stroke="#96F586" stroke-width="3"/>
<path d="M118.011 119.637V119.637C113.554 118.22 109.369 122.454 110.838 126.895L112.14 130.829" stroke="#96F586" stroke-width="3"/>
<path d="M135.37 134.087V134.087C131.649 131.077 126.079 133.504 125.751 138.279L125.476 142.28" stroke="#96F586" stroke-width="3"/>
<path d="M148.017 133.202V133.202C144.561 128.373 137.362 128.434 133.988 133.321L133.504 134.022" stroke="#96F586" stroke-width="3"/>
<path d="M151.381 146.478V146.478C151.232 142.233 146.561 139.724 142.94 141.945L140.906 143.192" stroke="#96F586" stroke-width="3"/>
<path d="M136.541 147.077V147.077C134.737 145.067 131.419 145.903 130.783 148.528L130.269 150.65" stroke="#96F586" stroke-width="3"/>
<path d="M168.523 132.704V132.704C170.756 131.064 169.62 127.525 166.85 127.491L161.231 127.423" stroke="#96F586" stroke-width="3"/>
<g filter="url(#filter3_i_446_181)">
<path d="M116.046 183.58H372.784V183.58C372.784 247.325 321.108 299 257.364 299H231.466C167.721 299 116.046 247.325 116.046 183.58V183.58Z" fill="#EBEAC5"/>
</g>
<path d="M118.573 186.08H370.256C368.927 247.29 318.892 296.5 257.364 296.5H231.466C169.937 296.5 119.902 247.29 118.573 186.08Z" stroke="black" stroke-width="5"/>
<rect x="115.465" y="181.271" width="256.873" height="28.6641" rx="7.5" fill="#F9F871" stroke="black" stroke-width="5"/>
<g filter="url(#filter4_i_446_181)">
<path d="M168.494 93.7697C159.434 78.5126 166.862 59.7108 183.778 55.0839V55.0839C201.612 50.2057 220.057 63.6772 220.444 81.8636L221.998 154.941C222.171 163.036 211.129 165.566 206.877 158.406L168.494 93.7697Z" fill="#F4A363"/>
</g>
<path d="M217.905 81.7975L219.459 154.875C219.578 160.44 211.987 162.18 209.063 157.257L170.68 92.6205C162.444 78.7513 169.197 61.6598 184.574 57.4537C200.786 53.0192 217.554 65.2654 217.905 81.7975Z" stroke="#97392D" stroke-width="5"/>
<g filter="url(#filter5_i_446_181)">
<path d="M191.794 40.4601C188.818 51.1889 176.164 58.0992 185.806 60.2768C195.449 62.4544 205.679 55.5223 208.656 44.7935C211.632 34.0646 206.228 23.6019 196.585 21.4243C186.942 19.2467 194.771 29.7313 191.794 40.4601Z" fill="#96F586"/>
</g>
<path d="M193.258 40.7905C191.981 45.3912 189.005 49.3809 186.759 52.3933C186.224 53.1106 185.73 53.7725 185.31 54.374C184.744 55.1863 184.322 55.8652 184.057 56.4395C183.787 57.0245 183.744 57.366 183.764 57.5503C183.778 57.6753 183.874 58.3044 186.207 58.8314C194.883 60.7907 204.391 54.56 207.192 44.463C209.993 34.3661 204.86 24.829 196.184 22.8697C195.058 22.6154 194.332 22.5824 193.883 22.6447C193.488 22.6996 193.401 22.8101 193.373 22.8454L193.372 22.8468C193.303 22.9335 193.18 23.1691 193.127 23.7322C193.076 24.2846 193.107 24.9939 193.199 25.8917C193.263 26.5096 193.356 27.2 193.458 27.9501C193.924 31.3951 194.56 36.0966 193.258 40.7905Z" stroke="#236119" stroke-width="3"/>
<g filter="url(#filter6_i_446_181)">
<path d="M171.446 46.1313C180.775 53.3063 196.043 51.7538 189.1 59.102C182.156 66.4502 168.966 66.5905 159.637 59.4154C150.309 52.2404 148.375 40.467 155.318 33.1188C162.261 25.7706 162.118 38.9562 171.446 46.1313Z" fill="#96F586"/>
</g>
<path d="M170.416 47.2216C174.394 50.2812 179.442 51.865 183.279 53.0686C184.196 53.3563 185.044 53.6223 185.791 53.8815C186.794 54.2292 187.594 54.5522 188.194 54.8813C188.806 55.2162 189.083 55.4886 189.197 55.6792C189.292 55.8372 189.575 56.426 187.911 58.1875C181.678 64.7839 169.515 65.1305 160.667 58.3251C151.819 51.5198 150.274 40.6297 156.507 34.0333C158.225 32.2145 158.876 32.377 158.962 32.4013C159.11 32.4433 159.387 32.5878 159.795 33.0333C160.195 33.4705 160.62 34.0835 161.107 34.8817C161.445 35.4347 161.802 36.0639 162.188 36.7461C163.959 39.8682 166.358 44.1004 170.416 47.2216Z" stroke="#236119" stroke-width="3"/>
<g filter="url(#filter7_i_446_181)">
<path d="M193.481 42.1799C197.064 52.7568 195.313 62.4853 188.678 64.3148C182.043 66.1443 173.76 59.0532 170.177 48.4763C166.594 37.8994 164.371 9.79028 171.006 7.96078C177.641 6.13128 189.898 31.603 193.481 42.1799Z" fill="#53C940"/>
</g>
<path d="M192.035 42.5786C193.765 47.6853 194.172 52.4957 193.416 56.1737C192.657 59.8614 190.803 62.1753 188.196 62.8941C185.567 63.6191 182.382 62.6345 179.261 59.9631C176.163 57.3105 173.34 53.146 171.623 48.0776C169.897 42.982 168.456 33.4715 168.284 24.9796C168.198 20.7398 168.431 16.8498 169.065 13.9466C169.384 12.4916 169.787 11.3587 170.252 10.5687C170.722 9.77011 171.162 9.4712 171.488 9.38149C171.787 9.29892 172.26 9.32202 173.021 9.74385C173.788 10.1693 174.691 10.9201 175.703 12.0072C177.722 14.1749 179.919 17.4003 182.069 21.0949C186.36 28.4693 190.277 37.3883 192.035 42.5786Z" stroke="#236119" stroke-width="3"/>
<line y1="-1.5" x2="20.0197" y2="-1.5" transform="matrix(0.966548 -0.256486 0.309936 0.950757 172.493 93.5332)" stroke="#97392D" stroke-width="3"/>
<line y1="-1.5" x2="20.0197" y2="-1.5" transform="matrix(0.966548 -0.256486 0.309936 0.950757 187.29 124.342)" stroke="#97392D" stroke-width="3"/>
<line y1="-1.5" x2="15.8168" y2="-1.5" transform="matrix(0.966548 -0.256486 0.309936 0.950757 202.087 103.803)" stroke="#97392D" stroke-width="3"/>
<g filter="url(#filter8_i_446_181)">
<path d="M250.221 112.711C234.513 90.2779 254.606 60.2559 281.334 66.2243L286.06 67.2797C314.842 73.7068 318.048 113.454 290.669 124.411L269.89 132.727C267.303 133.762 264.344 132.88 262.746 130.598L250.221 112.711Z" fill="#BD6AB5"/>
</g>
<path d="M280.789 68.6642L285.515 69.7196C311.899 75.6111 314.838 112.046 289.74 122.09L268.961 130.405C267.452 131.009 265.726 130.495 264.794 129.164L252.269 111.277C237.87 90.7133 256.289 63.1932 280.789 68.6642Z" stroke="#651273" stroke-width="5"/>
<path d="M268.865 27.2985L275.184 30.8956C283.17 35.4422 287.489 44.474 286.014 53.5447L283.472 69.1803L271.663 57.71C265.475 51.6995 263.371 42.6271 266.282 34.5065L268.865 27.2985Z" fill="#53C940" stroke="#236119" stroke-width="4"/>
<line y1="-1.5" x2="20.0197" y2="-1.5" transform="matrix(0.966386 0.257096 -0.202857 0.979208 252.63 87.3691)" stroke="#651273" stroke-width="3"/>
<line y1="-1.5" x2="16.4312" y2="-1.5" transform="matrix(0.966386 0.257096 -0.202857 0.979208 281.385 112.018)" stroke="#651273" stroke-width="3"/>
<path d="M289.997 69.7832L284.946 69.4375L286.131 64.2257C288.689 52.9827 300.091 46.1207 311.224 49.0826C311.738 60.9215 301.838 70.5938 289.997 69.7832Z" fill="#53C940" stroke="#236119" stroke-width="4"/>
<defs>
<filter id="filter0_i_446_181" x="224.53" y="93.1855" width="157.862" height="172.115" filterUnits="userSpaceOnUse" color-interpolation-filters="sRGB">
<feFlood flood-opacity="0" result="BackgroundImageFix"/>
<feBlend mode="normal" in="SourceGraphic" in2="BackgroundImageFix" result="shape"/>
<feColorMatrix in="SourceAlpha" type="matrix" values="0 0 0 0 0 0 0 0 0 0 0 0 0 0 0 0 0 0 127 0" result="hardAlpha"/>
<feOffset dx="4" dy="-48"/>
<feGaussianBlur stdDeviation="2"/>
<feComposite in2="hardAlpha" operator="arithmetic" k2="-1" k3="1"/>
<feColorMatrix type="matrix" values="0 0 0 0 0 0 0 0 0 0 0 0 0 0 0 0 0 0 0.25 0"/>
<feBlend mode="normal" in2="shape" result="effect1_innerShadow_446_181"/>
</filter>
<filter id="filter1_i_446_181" x="318.261" y="94.0957" width="60.5824" height="43.6523" filterUnits="userSpaceOnUse" color-interpolation-filters="sRGB">
<feFlood flood-opacity="0" result="BackgroundImageFix"/>
<feBlend mode="normal" in="SourceGraphic" in2="BackgroundImageFix" result="shape"/>
<feColorMatrix in="SourceAlpha" type="matrix" values="0 0 0 0 0 0 0 0 0 0 0 0 0 0 0 0 0 0 127 0" result="hardAlpha"/>
<feOffset dx="-12" dy="-1"/>
<feGaussianBlur stdDeviation="2"/>
<feComposite in2="hardAlpha" operator="arithmetic" k2="-1" k3="1"/>
<feColorMatrix type="matrix" values="0 0 0 0 0 0 0 0 0 0 0 0 0 0 0 0 0 0 0.25 0"/>
<feBlend mode="normal" in2="shape" result="effect1_innerShadow_446_181"/>
</filter>
<filter id="filter2_i_446_181" x="91.8456" y="97.5879" width="89.8802" height="93.7832" filterUnits="userSpaceOnUse" color-interpolation-filters="sRGB">
<feFlood flood-opacity="0" result="BackgroundImageFix"/>
<feBlend mode="normal" in="SourceGraphic" in2="BackgroundImageFix" result="shape"/>
<feColorMatrix in="SourceAlpha" type="matrix" values="0 0 0 0 0 0 0 0 0 0 0 0 0 0 0 0 0 0 127 0" result="hardAlpha"/>
<feOffset dx="-18" dy="4"/>
<feGaussianBlur stdDeviation="2"/>
<feComposite in2="hardAlpha" operator="arithmetic" k2="-1" k3="1"/>
<feColorMatrix type="matrix" values="0 0 0 0 0 0 0 0 0 0 0 0 0 0 0 0 0 0 0.25 0"/>
<feBlend mode="normal" in2="shape" result="effect1_innerShadow_446_181"/>
</filter>
<filter id="filter3_i_446_181" x="112.046" y="179.58" width="260.738" height="119.42" filterUnits="userSpaceOnUse" color-interpolation-filters="sRGB">
<feFlood flood-opacity="0" result="BackgroundImageFix"/>
<feBlend mode="normal" in="SourceGraphic" in2="BackgroundImageFix" result="shape"/>
<feColorMatrix in="SourceAlpha" type="matrix" values="0 0 0 0 0 0 0 0 0 0 0 0 0 0 0 0 0 0 127 0" result="hardAlpha"/>
<feOffset dx="-19" dy="-15"/>
<feGaussianBlur stdDeviation="2"/>
<feComposite in2="hardAlpha" operator="arithmetic" k2="-1" k3="1"/>
<feColorMatrix type="matrix" values="0 0 0 0 0.956863 0 0 0 0 0.639216 0 0 0 0 0.388235 0 0 0 0.24 0"/>
<feBlend mode="normal" in2="shape" result="effect1_innerShadow_446_181"/>
</filter>
<filter id="filter4_i_446_181" x="160.6" y="54.0762" width="61.4" height="112.535" filterUnits="userSpaceOnUse" color-interpolation-filters="sRGB">
<feFlood flood-opacity="0" result="BackgroundImageFix"/>
<feBlend mode="normal" in="SourceGraphic" in2="BackgroundImageFix" result="shape"/>
<feColorMatrix in="SourceAlpha" type="matrix" values="0 0 0 0 0 0 0 0 0 0 0 0 0 0 0 0 0 0 127 0" result="hardAlpha"/>
<feOffset dx="-11" dy="4"/>
<feGaussianBlur stdDeviation="2"/>
<feComposite in2="hardAlpha" operator="arithmetic" k2="-1" k3="1"/>
<feColorMatrix type="matrix" values="0 0 0 0 0 0 0 0 0 0 0 0 0 0 0 0 0 0 0.25 0"/>
<feBlend mode="normal" in2="shape" result="effect1_innerShadow_446_181"/>
</filter>
<filter id="filter5_i_446_181" x="178.243" y="21.1348" width="31.2306" height="40.543" filterUnits="userSpaceOnUse" color-interpolation-filters="sRGB">
<feFlood flood-opacity="0" result="BackgroundImageFix"/>
<feBlend mode="normal" in="SourceGraphic" in2="BackgroundImageFix" result="shape"/>
<feColorMatrix in="SourceAlpha" type="matrix" values="0 0 0 0 0 0 0 0 0 0 0 0 0 0 0 0 0 0 127 0" result="hardAlpha"/>
<feOffset dx="-6" dy="1"/>
<feGaussianBlur stdDeviation="2"/>
<feComposite in2="hardAlpha" operator="arithmetic" k2="-1" k3="1"/>
<feColorMatrix type="matrix" values="0 0 0 0 0 0 0 0 0 0 0 0 0 0 0 0 0 0 0.25 0"/>
<feBlend mode="normal" in2="shape" result="effect1_innerShadow_446_181"/>
</filter>
<filter id="filter6_i_446_181" x="147.152" y="30.959" width="43.7033" height="37.748" filterUnits="userSpaceOnUse" color-interpolation-filters="sRGB">
<feFlood flood-opacity="0" result="BackgroundImageFix"/>
<feBlend mode="normal" in="SourceGraphic" in2="BackgroundImageFix" result="shape"/>
<feColorMatrix in="SourceAlpha" type="matrix" values="0 0 0 0 0 0 0 0 0 0 0 0 0 0 0 0 0 0 127 0" result="hardAlpha"/>
<feOffset dx="-5" dy="4"/>
<feGaussianBlur stdDeviation="2"/>
<feComposite in2="hardAlpha" operator="arithmetic" k2="-1" k3="1"/>
<feColorMatrix type="matrix" values="0 0 0 0 0 0 0 0 0 0 0 0 0 0 0 0 0 0 0.25 0"/>
<feBlend mode="normal" in2="shape" result="effect1_innerShadow_446_181"/>
</filter>
<filter id="filter7_i_446_181" x="162.742" y="7.86719" width="32.5607" height="60.7344" filterUnits="userSpaceOnUse" color-interpolation-filters="sRGB">
<feFlood flood-opacity="0" result="BackgroundImageFix"/>
<feBlend mode="normal" in="SourceGraphic" in2="BackgroundImageFix" result="shape"/>
<feColorMatrix in="SourceAlpha" type="matrix" values="0 0 0 0 0 0 0 0 0 0 0 0 0 0 0 0 0 0 127 0" result="hardAlpha"/>
<feOffset dx="-5" dy="4"/>
<feGaussianBlur stdDeviation="2"/>
<feComposite in2="hardAlpha" operator="arithmetic" k2="-1" k3="1"/>
<feColorMatrix type="matrix" values="0 0 0 0 0 0 0 0 0 0 0 0 0 0 0 0 0 0 0.25 0"/>
<feBlend mode="normal" in2="shape" result="effect1_innerShadow_446_181"/>
</filter>
<filter id="filter8_i_446_181" x="240.694" y="61.4551" width="68.833" height="71.7012" filterUnits="userSpaceOnUse" color-interpolation-filters="sRGB">
<feFlood flood-opacity="0" result="BackgroundImageFix"/>
<feBlend mode="normal" in="SourceGraphic" in2="BackgroundImageFix" result="shape"/>
<feColorMatrix in="SourceAlpha" type="matrix" values="0 0 0 0 0 0 0 0 0 0 0 0 0 0 0 0 0 0 127 0" result="hardAlpha"/>
<feOffset dx="-13" dy="-4"/>
<feGaussianBlur stdDeviation="2"/>
<feComposite in2="hardAlpha" operator="arithmetic" k2="-1" k3="1"/>
<feColorMatrix type="matrix" values="0 0 0 0 0 0 0 0 0 0 0 0 0 0 0 0 0 0 0.25 0"/>
<feBlend mode="normal" in2="shape" result="effect1_innerShadow_446_181"/>
</filter>
</defs>
</svg>
