<svg width="372" height="295" viewBox="0 0 372 295" fill="none" xmlns="http://www.w3.org/2000/svg">
<path d="M85.2771 52.3216L88.2805 54.4835C90.2855 55.9267 92.8192 56.4262 95.222 55.852L100.512 54.5878C103.537 53.8648 105.932 57.1528 104.316 59.8106L101.49 64.4575C100.206 66.5682 99.9041 69.133 100.663 71.4841L101.799 75.0059C102.836 78.2217 99.1656 80.8952 96.4232 78.9212L93.4198 76.7593C91.4148 75.3161 88.8811 74.8165 86.4784 75.3908L81.1885 76.6549C78.163 77.378 75.7682 74.09 77.3846 71.4322L80.2107 66.7853C81.4943 64.6745 81.7962 62.1098 81.0377 59.7587L79.9014 56.2368C78.8639 53.0211 82.5347 50.3475 85.2771 52.3216Z" fill="#F4A363" stroke="#121A2D" stroke-width="5"/>
<path d="M239.583 147.332L242.912 150.787C244.928 152.879 243.664 156.375 240.776 156.694L236.007 157.221C233.593 157.487 231.407 158.785 230.006 160.753C227.951 163.64 223.336 161.972 223.603 158.437C223.784 156.029 222.934 153.633 221.249 151.884L217.919 148.429C215.903 146.336 217.167 142.84 220.056 142.521L224.825 141.995C227.239 141.728 229.425 140.431 230.826 138.463C232.881 135.575 237.496 137.244 237.229 140.778C237.047 143.187 237.897 145.582 239.583 147.332Z" fill="#F4A363" stroke="#121A2D" stroke-width="5"/>
<path d="M332.009 59.0151L335.338 62.4702C337.354 64.5626 336.09 68.0587 333.202 68.3776L328.433 68.9042C326.018 69.1708 323.832 70.4685 322.432 72.4363C320.376 75.3241 315.761 73.6553 316.028 70.1207C316.21 67.7122 315.36 65.3166 313.674 63.5675L310.345 60.1124C308.329 58.02 309.593 54.5239 312.481 54.205L317.25 53.6784C319.665 53.4118 321.851 52.1141 323.251 50.1463C325.307 47.2585 329.922 48.9273 329.655 52.4619C329.473 54.8704 330.323 57.266 332.009 59.0151Z" fill="#F4A363" stroke="#121A2D" stroke-width="5"/>
<path d="M232.787 145.393L232.951 148.211L235.453 150.136L232.298 150.016L230.37 152.076L230.205 149.259L227.704 147.334L230.858 147.454L232.787 145.393Z" fill="#F7F0EB"/>
<path d="M232.787 145.393L232.951 148.211L235.453 150.136L232.298 150.016L230.37 152.076L230.205 149.259L227.704 147.334L230.858 147.454L232.787 145.393Z" fill="#F7F0EB"/>
<path d="M93.8018 61.467L92.3093 63.8623L93.2403 66.8786L90.7342 64.9592L87.9699 65.5282L89.4623 63.1328L88.5314 60.1165L91.0375 62.0359L93.8018 61.467Z" fill="#F7F0EB"/>
<path d="M93.8018 61.467L92.3093 63.8623L93.2403 66.8786L90.7342 64.9592L87.9699 65.5282L89.4623 63.1328L88.5314 60.1165L91.0375 62.0359L93.8018 61.467Z" fill="#F7F0EB"/>
<path d="M325.212 57.0749L325.377 59.8924L327.878 61.8175L324.724 61.6974L322.796 63.758L322.631 60.9406L320.129 59.0154L323.284 59.1355L325.212 57.0749Z" fill="#F7F0EB"/>
<path d="M325.212 57.0749L325.377 59.8924L327.878 61.8175L324.724 61.6974L322.796 63.758L322.631 60.9406L320.129 59.0154L323.284 59.1355L325.212 57.0749Z" fill="#F7F0EB"/>
<g filter="url(#filter0_i_446_181)">
<path d="M324.168 196.017C279.699 275.806 258.066 264.516 231.782 249.868C207.303 236.225 177.426 208.136 244.583 169.083C255.073 162.983 264.049 154.491 270.623 144.291C294.024 107.986 322.746 82.7428 345.774 95.5772C372.057 110.226 348.908 151.628 324.168 196.017Z" fill="#785BB4"/>
</g>
<path d="M321.984 194.8C310.911 214.667 301.319 228.756 292.787 238.506C284.25 248.261 276.881 253.551 270.281 256.015C257.266 260.873 246.313 255.104 233 247.684C226.989 244.334 220.746 240.149 215.774 235.208C210.794 230.259 207.244 224.707 206.289 218.617C204.42 206.702 212.358 190.715 245.839 171.245C256.664 164.95 265.932 156.184 272.725 145.645C284.345 127.616 297.172 112.526 309.788 103.543C322.416 94.5525 334.265 92.025 344.557 97.7609C350.449 101.045 353.487 105.721 354.501 111.632C355.542 117.694 354.469 125.182 351.72 133.892C346.227 151.302 334.432 172.466 322.031 194.716L321.984 194.8Z" stroke="#140844" stroke-width="5"/>
<g filter="url(#filter1_i_446_181)">
<path d="M357.173 124.353C354.806 145.612 350.243 118.858 339.966 126.661C335.748 116.811 335.866 111.128 316.867 113.695C314.594 113.174 315.417 107.689 313.273 107.375C308.201 106.634 303.765 108.974 301.261 107.375C311.039 93.5169 326.667 87.8463 340.511 90.9079C354.355 93.9695 359.89 108.853 357.173 124.353Z" fill="#96F586"/>
</g>
<path d="M317.37 109.523C317.221 108.893 317.012 108.079 316.692 107.379C316.3 106.526 315.425 105.163 313.634 104.902C310.902 104.502 308.342 104.875 306.424 105.153C306.339 105.166 306.255 105.178 306.173 105.19C315.391 94.7874 328.423 90.7951 339.971 93.3489C346.031 94.6892 350.288 98.584 352.78 104.009C355.3 109.495 356.001 116.558 354.71 123.922L354.697 123.999L354.688 124.077C354.414 126.537 354.121 128.231 353.824 129.356C353.696 129.217 353.556 129.062 353.403 128.89C353.272 128.743 353.132 128.584 352.985 128.417C351.761 127.023 349.996 125.013 347.887 123.821C346.63 123.111 345.131 122.61 343.431 122.697C342.686 122.735 341.95 122.883 341.222 123.14C341.185 123.047 341.148 122.954 341.111 122.862C340.565 121.499 340.031 120.166 339.513 119.059C338.567 117.038 337.397 115.092 335.534 113.581C331.996 110.709 326.742 110.011 318.214 111.006L317.37 109.523ZM353.334 130.693C353.333 130.693 353.335 130.69 353.339 130.686C353.335 130.691 353.334 130.693 353.334 130.693Z" stroke="#236119" stroke-width="5"/>
<ellipse cx="348.163" cy="87.4037" rx="5.19322" ry="10.1374" transform="rotate(33.9297 348.163 87.4037)" fill="#236119"/>
<g filter="url(#filter2_i_446_181)">
<path d="M90.6752 143.978C80.0669 133.273 92.1779 115.808 105.896 122.047L116.599 126.916C117.109 127.147 117.691 126.79 117.714 126.231V126.231C118.034 118.667 123.944 112.529 131.49 111.923L136.307 111.536C145.879 110.768 152.68 120.666 148.532 129.326L148.411 129.578C148.223 129.97 148.57 130.405 148.993 130.31V130.31C160.63 127.699 166.057 144.13 155.155 148.964L150.538 151.011C146.201 152.934 143.722 157.556 144.52 162.233L147.842 181.705C148.319 184.502 146.646 187.219 143.933 188.052L134.837 190.844C132.406 191.59 129.797 190.433 128.717 188.132L122.162 174.162C119.343 168.153 112.64 165.01 106.218 166.686L101.102 168.021C87.1864 171.651 78.7306 153.163 90.5786 145.011V145.011C90.9257 144.772 90.9718 144.277 90.6752 143.978V143.978Z" fill="#46AB35"/>
</g>
<path d="M143.199 185.662L134.103 188.454C132.863 188.834 131.532 188.244 130.981 187.07L124.426 173.1C121.095 166.001 113.174 162.287 105.586 164.267L100.471 165.602C89.2638 168.526 82.4539 153.636 91.9958 147.07C93.6285 145.947 93.8425 143.622 92.4509 142.218C83.7735 133.462 93.7018 119.248 104.861 124.323L115.564 129.191C117.688 130.157 120.113 128.667 120.212 126.336C120.478 120.034 125.402 114.92 131.69 114.415L136.507 114.028C144.157 113.415 149.593 121.325 146.277 128.246L146.156 128.498C145.067 130.773 147.08 133.301 149.54 132.749C158.23 130.799 162.283 143.069 154.141 146.678L149.525 148.725C144.142 151.112 141.065 156.849 142.056 162.653L145.377 182.125C145.643 183.684 144.711 185.198 143.199 185.662Z" stroke="#236119" stroke-width="5"/>
<line x1="137.798" y1="185.074" x2="130.517" y2="163.229" stroke="#96F586" stroke-width="5"/>
<path d="M139.692 129.092V129.092C141.537 125.188 137.325 121.195 133.525 123.246L125.607 127.519" stroke="#96F586" stroke-width="3"/>
<path d="M94.1677 152.059V152.059C91.9995 155.592 94.7517 160.094 98.885 159.775L102.547 159.492" stroke="#96F586" stroke-width="3"/>
<path d="M104.594 131.033V131.033C100.644 129.777 96.9346 133.53 98.237 137.466L99.3909 140.953" stroke="#96F586" stroke-width="3"/>
<path d="M119.98 143.844V143.844C116.682 141.175 111.745 143.327 111.454 147.559L111.211 151.105" stroke="#96F586" stroke-width="3"/>
<path d="M131.189 143.059V143.059C128.126 138.779 121.745 138.832 118.755 143.164L118.325 143.785" stroke="#96F586" stroke-width="3"/>
<path d="M134.17 154.825V154.825C134.039 151.062 129.898 148.839 126.689 150.807L124.886 151.913" stroke="#96F586" stroke-width="3"/>
<path d="M121.017 155.355V155.355C119.419 153.573 116.478 154.314 115.914 156.64L115.459 158.522" stroke="#96F586" stroke-width="3"/>
<path d="M149.363 142.616V142.616C151.343 141.163 150.336 138.026 147.88 137.996L142.901 137.936" stroke="#96F586" stroke-width="3"/>
<g filter="url(#filter3_i_446_181)">
<path d="M95.0456 178.584H351.784V178.584C351.784 242.329 300.108 294.004 236.364 294.004H210.466C146.721 294.004 95.0456 242.329 95.0456 178.584V178.584Z" fill="#EBEAC5"/>
</g>
<path d="M97.5727 181.084H349.256C347.927 242.293 297.892 291.504 236.364 291.504H210.466C148.937 291.504 98.9023 242.293 97.5727 181.084Z" stroke="black" stroke-width="5"/>
<rect x="94.4647" y="176.275" width="256.873" height="28.6641" rx="7.5" fill="#F9F871" stroke="black" stroke-width="5"/>
<g filter="url(#filter4_i_446_181)">
<path d="M147.494 88.7736C138.434 73.5165 145.862 54.7148 162.778 50.0878V50.0878C180.612 45.2096 199.057 58.6811 199.444 76.8675L200.998 149.945C201.171 158.04 190.129 160.57 185.877 153.41L147.494 88.7736Z" fill="#F4A363"/>
</g>
<path d="M196.905 76.8014L198.459 149.878C198.578 155.444 190.987 157.184 188.063 152.261L149.68 87.6244C141.444 73.7552 148.197 56.6637 163.574 52.4576C179.786 48.0231 196.554 60.2693 196.905 76.8014Z" stroke="#97392D" stroke-width="5"/>
<g filter="url(#filter5_i_446_181)">
<path d="M170.794 35.464C167.818 46.1928 155.164 53.1031 164.806 55.2807C174.449 57.4583 184.679 50.5262 187.656 39.7974C190.632 29.0685 185.228 18.6058 175.585 16.4282C165.942 14.2506 173.771 24.7352 170.794 35.464Z" fill="#96F586"/>
</g>
<path d="M172.258 35.7944C170.981 40.3951 168.005 44.3848 165.759 47.3972C165.224 48.1145 164.73 48.7764 164.31 49.3779C163.744 50.1902 163.322 50.8691 163.057 51.4434C162.787 52.0284 162.744 52.3699 162.764 52.5542C162.778 52.6792 162.874 53.3084 165.207 53.8353C173.883 55.7946 183.391 49.5639 186.192 39.4669C188.993 29.37 183.86 19.8329 175.184 17.8736C174.058 17.6193 173.332 17.5863 172.883 17.6487C172.488 17.7035 172.401 17.814 172.373 17.8493L172.372 17.8507C172.303 17.9374 172.18 18.173 172.127 18.7361C172.076 19.2885 172.107 19.9978 172.199 20.8956C172.263 21.5135 172.356 22.2039 172.458 22.954C172.924 26.399 173.56 31.1005 172.258 35.7944Z" stroke="#236119" stroke-width="3"/>
<g filter="url(#filter6_i_446_181)">
<path d="M150.446 41.1352C159.775 48.3102 175.043 46.7577 168.1 54.1059C161.156 61.4541 147.966 61.5944 138.637 54.4193C129.309 47.2443 127.375 35.4709 134.318 28.1227C141.261 20.7745 141.118 33.9601 150.446 41.1352Z" fill="#96F586"/>
</g>
<path d="M149.416 42.2255C153.394 45.2851 158.442 46.8689 162.279 48.0725C163.196 48.3602 164.044 48.6262 164.791 48.8854C165.794 49.2331 166.594 49.5561 167.194 49.8852C167.806 50.2201 168.083 50.4925 168.197 50.6831C168.292 50.8411 168.575 51.4299 166.911 53.1914C160.678 59.7878 148.515 60.1344 139.667 53.3291C130.819 46.5237 129.274 35.6336 135.507 29.0372C137.225 27.2184 137.876 27.3809 137.962 27.4052C138.11 27.4472 138.387 27.5918 138.795 28.0372C139.195 28.4744 139.62 29.0874 140.107 29.8856C140.445 30.4386 140.802 31.0678 141.188 31.75C142.959 34.8721 145.358 39.1044 149.416 42.2255Z" stroke="#236119" stroke-width="3"/>
<g filter="url(#filter7_i_446_181)">
<path d="M172.481 37.1838C176.064 47.7607 174.313 57.4892 167.678 59.3187C161.043 61.1482 152.76 54.0571 149.177 43.4802C145.594 32.9033 143.371 4.79419 150.006 2.96469C156.641 1.13518 168.898 26.6069 172.481 37.1838Z" fill="#53C940"/>
</g>
<path d="M171.035 37.5825C172.765 42.6892 173.172 47.4996 172.416 51.1776C171.657 54.8653 169.803 57.1792 167.196 57.898C164.567 58.623 161.382 57.6384 158.261 54.967C155.163 52.3144 152.34 48.1499 150.623 43.0815C148.897 37.9859 147.456 28.4754 147.284 19.9835C147.198 15.7437 147.431 11.8537 148.065 8.95055C148.384 7.49553 148.787 6.36263 149.252 5.57262C149.722 4.77401 150.162 4.4751 150.488 4.3854C150.787 4.30283 151.26 4.32592 152.021 4.74776C152.788 5.17317 153.691 5.92403 154.703 7.01114C156.722 9.17882 158.919 12.4042 161.069 16.0988C165.36 23.4732 169.277 32.3922 171.035 37.5825Z" stroke="#236119" stroke-width="3"/>
<line y1="-1.5" x2="20.0197" y2="-1.5" transform="matrix(0.966548 -0.256486 0.309936 0.950757 151.493 88.5371)" stroke="#97392D" stroke-width="3"/>
<line y1="-1.5" x2="20.0197" y2="-1.5" transform="matrix(0.966548 -0.256486 0.309936 0.950757 166.29 119.346)" stroke="#97392D" stroke-width="3"/>
<line y1="-1.5" x2="15.8168" y2="-1.5" transform="matrix(0.966548 -0.256486 0.309936 0.950757 181.087 98.8066)" stroke="#97392D" stroke-width="3"/>
<g filter="url(#filter8_i_446_181)">
<path d="M229.221 107.715C213.513 85.2818 233.606 55.2598 260.334 61.2282L265.06 62.2836C293.842 68.7107 297.048 108.457 269.669 119.415L248.89 127.73C246.303 128.766 243.344 127.884 241.746 125.601L229.221 107.715Z" fill="#BD6AB5"/>
</g>
<path d="M259.789 63.6681L264.515 64.7235C290.899 70.615 293.838 107.05 268.74 117.094L247.961 125.409C246.452 126.013 244.726 125.499 243.794 124.168L231.269 106.281C216.87 85.7172 235.289 58.1971 259.789 63.6681Z" stroke="#651273" stroke-width="5"/>
<path d="M247.865 22.3024L254.184 25.8995C262.17 30.4461 266.489 39.4779 265.014 48.5486L262.472 64.1842L250.663 52.7139C244.475 46.7034 242.371 37.631 245.282 29.5104L247.865 22.3024Z" fill="#53C940" stroke="#236119" stroke-width="4"/>
<line y1="-1.5" x2="20.0197" y2="-1.5" transform="matrix(0.966386 0.257096 -0.202857 0.979208 231.63 82.373)" stroke="#651273" stroke-width="3"/>
<line y1="-1.5" x2="16.4312" y2="-1.5" transform="matrix(0.966386 0.257096 -0.202857 0.979208 260.385 107.021)" stroke="#651273" stroke-width="3"/>
<path d="M268.997 64.7871L263.946 64.4414L265.131 59.2296C267.689 47.9866 279.091 41.1246 290.224 44.0865C290.738 55.9255 280.838 65.5977 268.997 64.7871Z" fill="#53C940" stroke="#236119" stroke-width="4"/>
<defs>
<filter id="filter0_i_446_181" x="203.53" y="88.1895" width="157.862" height="172.115" filterUnits="userSpaceOnUse" color-interpolation-filters="sRGB">
<feFlood flood-opacity="0" result="BackgroundImageFix"/>
<feBlend mode="normal" in="SourceGraphic" in2="BackgroundImageFix" result="shape"/>
<feColorMatrix in="SourceAlpha" type="matrix" values="0 0 0 0 0 0 0 0 0 0 0 0 0 0 0 0 0 0 127 0" result="hardAlpha"/>
<feOffset dx="4" dy="-48"/>
<feGaussianBlur stdDeviation="2"/>
<feComposite in2="hardAlpha" operator="arithmetic" k2="-1" k3="1"/>
<feColorMatrix type="matrix" values="0 0 0 0 0 0 0 0 0 0 0 0 0 0 0 0 0 0 0.25 0"/>
<feBlend mode="normal" in2="shape" result="effect1_innerShadow_446_181"/>
</filter>
<filter id="filter1_i_446_181" x="297.261" y="89.0996" width="60.5824" height="43.6523" filterUnits="userSpaceOnUse" color-interpolation-filters="sRGB">
<feFlood flood-opacity="0" result="BackgroundImageFix"/>
<feBlend mode="normal" in="SourceGraphic" in2="BackgroundImageFix" result="shape"/>
<feColorMatrix in="SourceAlpha" type="matrix" values="0 0 0 0 0 0 0 0 0 0 0 0 0 0 0 0 0 0 127 0" result="hardAlpha"/>
<feOffset dx="-12" dy="-1"/>
<feGaussianBlur stdDeviation="2"/>
<feComposite in2="hardAlpha" operator="arithmetic" k2="-1" k3="1"/>
<feColorMatrix type="matrix" values="0 0 0 0 0 0 0 0 0 0 0 0 0 0 0 0 0 0 0.25 0"/>
<feBlend mode="normal" in2="shape" result="effect1_innerShadow_446_181"/>
</filter>
<filter id="filter2_i_446_181" x="80.9487" y="111.494" width="80.1163" height="83.5742" filterUnits="userSpaceOnUse" color-interpolation-filters="sRGB">
<feFlood flood-opacity="0" result="BackgroundImageFix"/>
<feBlend mode="normal" in="SourceGraphic" in2="BackgroundImageFix" result="shape"/>
<feColorMatrix in="SourceAlpha" type="matrix" values="0 0 0 0 0 0 0 0 0 0 0 0 0 0 0 0 0 0 127 0" result="hardAlpha"/>
<feOffset dx="-18" dy="4"/>
<feGaussianBlur stdDeviation="2"/>
<feComposite in2="hardAlpha" operator="arithmetic" k2="-1" k3="1"/>
<feColorMatrix type="matrix" values="0 0 0 0 0 0 0 0 0 0 0 0 0 0 0 0 0 0 0.25 0"/>
<feBlend mode="normal" in2="shape" result="effect1_innerShadow_446_181"/>
</filter>
<filter id="filter3_i_446_181" x="91.0456" y="174.584" width="260.738" height="119.42" filterUnits="userSpaceOnUse" color-interpolation-filters="sRGB">
<feFlood flood-opacity="0" result="BackgroundImageFix"/>
<feBlend mode="normal" in="SourceGraphic" in2="BackgroundImageFix" result="shape"/>
<feColorMatrix in="SourceAlpha" type="matrix" values="0 0 0 0 0 0 0 0 0 0 0 0 0 0 0 0 0 0 127 0" result="hardAlpha"/>
<feOffset dx="-19" dy="-15"/>
<feGaussianBlur stdDeviation="2"/>
<feComposite in2="hardAlpha" operator="arithmetic" k2="-1" k3="1"/>
<feColorMatrix type="matrix" values="0 0 0 0 0.956863 0 0 0 0 0.639216 0 0 0 0 0.388235 0 0 0 0.24 0"/>
<feBlend mode="normal" in2="shape" result="effect1_innerShadow_446_181"/>
</filter>
<filter id="filter4_i_446_181" x="139.6" y="49.0801" width="61.4" height="112.535" filterUnits="userSpaceOnUse" color-interpolation-filters="sRGB">
<feFlood flood-opacity="0" result="BackgroundImageFix"/>
<feBlend mode="normal" in="SourceGraphic" in2="BackgroundImageFix" result="shape"/>
<feColorMatrix in="SourceAlpha" type="matrix" values="0 0 0 0 0 0 0 0 0 0 0 0 0 0 0 0 0 0 127 0" result="hardAlpha"/>
<feOffset dx="-11" dy="4"/>
<feGaussianBlur stdDeviation="2"/>
<feComposite in2="hardAlpha" operator="arithmetic" k2="-1" k3="1"/>
<feColorMatrix type="matrix" values="0 0 0 0 0 0 0 0 0 0 0 0 0 0 0 0 0 0 0.25 0"/>
<feBlend mode="normal" in2="shape" result="effect1_innerShadow_446_181"/>
</filter>
<filter id="filter5_i_446_181" x="157.243" y="16.1387" width="31.2306" height="40.543" filterUnits="userSpaceOnUse" color-interpolation-filters="sRGB">
<feFlood flood-opacity="0" result="BackgroundImageFix"/>
<feBlend mode="normal" in="SourceGraphic" in2="BackgroundImageFix" result="shape"/>
<feColorMatrix in="SourceAlpha" type="matrix" values="0 0 0 0 0 0 0 0 0 0 0 0 0 0 0 0 0 0 127 0" result="hardAlpha"/>
<feOffset dx="-6" dy="1"/>
<feGaussianBlur stdDeviation="2"/>
<feComposite in2="hardAlpha" operator="arithmetic" k2="-1" k3="1"/>
<feColorMatrix type="matrix" values="0 0 0 0 0 0 0 0 0 0 0 0 0 0 0 0 0 0 0.25 0"/>
<feBlend mode="normal" in2="shape" result="effect1_innerShadow_446_181"/>
</filter>
<filter id="filter6_i_446_181" x="126.152" y="25.9629" width="43.7033" height="37.748" filterUnits="userSpaceOnUse" color-interpolation-filters="sRGB">
<feFlood flood-opacity="0" result="BackgroundImageFix"/>
<feBlend mode="normal" in="SourceGraphic" in2="BackgroundImageFix" result="shape"/>
<feColorMatrix in="SourceAlpha" type="matrix" values="0 0 0 0 0 0 0 0 0 0 0 0 0 0 0 0 0 0 127 0" result="hardAlpha"/>
<feOffset dx="-5" dy="4"/>
<feGaussianBlur stdDeviation="2"/>
<feComposite in2="hardAlpha" operator="arithmetic" k2="-1" k3="1"/>
<feColorMatrix type="matrix" values="0 0 0 0 0 0 0 0 0 0 0 0 0 0 0 0 0 0 0.25 0"/>
<feBlend mode="normal" in2="shape" result="effect1_innerShadow_446_181"/>
</filter>
<filter id="filter7_i_446_181" x="141.742" y="2.87109" width="32.5607" height="60.7344" filterUnits="userSpaceOnUse" color-interpolation-filters="sRGB">
<feFlood flood-opacity="0" result="BackgroundImageFix"/>
<feBlend mode="normal" in="SourceGraphic" in2="BackgroundImageFix" result="shape"/>
<feColorMatrix in="SourceAlpha" type="matrix" values="0 0 0 0 0 0 0 0 0 0 0 0 0 0 0 0 0 0 127 0" result="hardAlpha"/>
<feOffset dx="-5" dy="4"/>
<feGaussianBlur stdDeviation="2"/>
<feComposite in2="hardAlpha" operator="arithmetic" k2="-1" k3="1"/>
<feColorMatrix type="matrix" values="0 0 0 0 0 0 0 0 0 0 0 0 0 0 0 0 0 0 0.25 0"/>
<feBlend mode="normal" in2="shape" result="effect1_innerShadow_446_181"/>
</filter>
<filter id="filter8_i_446_181" x="219.694" y="56.459" width="68.833" height="71.7012" filterUnits="userSpaceOnUse" color-interpolation-filters="sRGB">
<feFlood flood-opacity="0" result="BackgroundImageFix"/>
<feBlend mode="normal" in="SourceGraphic" in2="BackgroundImageFix" result="shape"/>
<feColorMatrix in="SourceAlpha" type="matrix" values="0 0 0 0 0 0 0 0 0 0 0 0 0 0 0 0 0 0 127 0" result="hardAlpha"/>
<feOffset dx="-13" dy="-4"/>
<feGaussianBlur stdDeviation="2"/>
<feComposite in2="hardAlpha" operator="arithmetic" k2="-1" k3="1"/>
<feColorMatrix type="matrix" values="0 0 0 0 0 0 0 0 0 0 0 0 0 0 0 0 0 0 0.25 0"/>
<feBlend mode="normal" in2="shape" result="effect1_innerShadow_446_181"/>
</filter>
</defs>
</svg>
