<svg width="20" height="21" viewBox="0 0 20 21" fill="none" xmlns="http://www.w3.org/2000/svg">
<path fill-rule="evenodd" clip-rule="evenodd" d="M14.5958 13.7283L19.9968 19.1956L18.579 20.6309L13.178 15.1635C11.8199 16.2323 10.1133 16.8687 8.25989 16.8687C3.83035 16.8687 0.239502 13.2337 0.239502 8.74976C0.239502 4.26581 3.83035 0.630859 8.25989 0.630859C12.6894 0.630859 16.2803 4.26581 16.2803 8.74976C16.2803 10.6259 15.6516 12.3535 14.5958 13.7283ZM8.25989 14.8389C11.582 14.8389 14.2752 12.1127 14.2752 8.74976C14.2752 5.3868 11.582 2.66058 8.25989 2.66058C4.93774 2.66058 2.2446 5.3868 2.2446 8.74976C2.2446 12.1127 4.93774 14.8389 8.25989 14.8389Z" fill="#0A7B79"/>
</svg>
