<svg width="42" height="42" viewBox="0 0 42 42" fill="none" xmlns="http://www.w3.org/2000/svg">
<circle cx="21" cy="21" r="20.5" fill="#0A7B79" stroke="#D3F2E9"/>
<path d="M32.2674 20.9509C34.8729 22.5981 36.4292 25.1744 36.4976 29.0273C36.354 29.1227 36.2128 29.2167 36.0736 29.3094C34.237 30.5325 32.7551 31.5194 30.7653 32.2354C28.5519 33.0319 25.6823 33.5 21 33.5C16.317 33.5 13.3123 33.0318 11.0304 32.2339C8.83598 31.4666 7.27842 30.3843 5.50202 29.0466C5.56557 25.183 7.1227 22.6009 9.73256 20.9509C12.4365 19.2415 16.3237 18.5 21 18.5C25.6763 18.5 29.5635 19.2415 32.2674 20.9509Z" fill="#F4A363" stroke="#F4A363"/>
<path d="M28.5 13C28.5 17.1421 25.1421 20.5 21 20.5C16.8579 20.5 13.5 17.1421 13.5 13C13.5 8.85786 16.8579 5.5 21 5.5C25.1421 5.5 28.5 8.85786 28.5 13Z" fill="#F4A363" stroke="#0A7B79"/>
</svg>
